<svg width="27" height="13" viewBox="0 0 27 13" fill="none" xmlns="http://www.w3.org/2000/svg">
<path opacity="0.7" d="M10.3453 0.478H9.19732V6.918H10.3453V0.478ZM1.44132 3.726C1.44132 2.634 2.35132 1.864 3.56932 1.864C4.80132 1.864 5.69732 2.634 5.69732 3.726C5.69732 4.804 4.80132 5.574 3.56932 5.574C2.35132 5.574 1.44132 4.804 1.44132 3.726ZM6.81732 3.726C6.81732 2.06 5.44532 0.926 3.56932 0.926C1.69332 0.926 0.335316 2.06 0.335316 3.726C0.335316 5.378 1.69332 6.498 3.56932 6.498C5.44532 6.498 6.81732 5.378 6.81732 3.726ZM3.37332 11.958V10.572H10.3453V7.534H2.21132V8.444H9.21132V9.718H2.23932V12.868H10.7653V11.958H3.37332ZM22.7151 3.95V4.888H25.2351V9.69H26.3971V0.492H25.2351V3.95H22.7151ZM23.4571 6.904C21.6371 6.26 20.4051 4.692 20.4051 3.054V2.438H23.1631V1.5H16.4571V2.438H19.2571V3.068C19.2571 4.846 17.9551 6.512 16.0931 7.184L16.6951 8.08C18.1651 7.548 19.3131 6.386 19.8591 4.958C20.4051 6.246 21.4831 7.296 22.8831 7.8L23.4571 6.904ZM19.5231 11.818V8.878H18.3611V12.756H26.7471V11.818H19.5231Z" fill="white"/>
</svg>
