<svg width="32" height="32" viewBox="0 0 32 32" fill="none" xmlns="http://www.w3.org/2000/svg">
<path d="M12.8952 14.0134L13.6526 13.1478C12.4624 11.7413 10.7312 10.9839 9 10.9839V12.0658C10.4066 12.0658 11.8132 12.715 12.787 13.797L12.8952 14.0134ZM21.0102 19.0988C19.7118 19.0988 18.5216 18.5578 17.5478 17.6922L16.8986 18.5578C17.9806 19.6398 19.4954 20.1808 21.0102 20.1808V21.8038L24.7972 19.6398L21.0102 17.4758V19.0988ZM21.0102 12.6068V14.2298L24.7972 12.0658L21.0102 9.90186V11.5249C19.279 11.5249 17.5478 12.2822 16.4658 13.6888L12.787 17.9086C11.8132 18.9906 10.4066 19.6398 9 19.6398V20.7218C10.7312 20.7218 12.4624 19.9644 13.5444 18.5578L17.2232 14.338C18.197 13.256 19.6036 12.6068 21.0102 12.6068Z" fill="white"/>
</svg>
