<svg width="32" height="32" viewBox="0 0 32 32" fill="none" xmlns="http://www.w3.org/2000/svg">
<path d="M12.869 12.705H17.738V14.328L21.525 12.164L17.738 10V11.623H12.869C10.164 11.623 8 13.787 8 16.492C8 17.1412 8.1082 17.7904 8.4328 18.4396L9.4066 17.8986C9.1902 17.4658 9.082 17.033 9.082 16.492C9.082 14.4362 10.8132 12.705 12.869 12.705ZM22.7152 14.5444L21.7414 15.0854C21.9578 15.5182 22.066 15.951 22.066 16.492C22.066 18.5478 20.3348 20.279 18.279 20.279H13.41V18.656L9.623 20.82L13.41 22.984V21.361H18.279C20.984 21.361 23.148 19.197 23.148 16.492C23.148 15.8428 23.0398 15.1936 22.7152 14.5444Z" fill="white"/>
</svg>
